<?xml version="1.0" encoding="utf-8"?>
<!-- Generator: Adobe Illustrator 26.0.3, SVG Export Plug-In . SVG Version: 6.00 Build 0)  -->
<svg version="1.1" id="Слой_1" xmlns="http://www.w3.org/2000/svg" xmlns:xlink="http://www.w3.org/1999/xlink" x="0px" y="0px"
	 viewBox="0 0 100 100" style="enable-background:new 0 0 100 100;" xml:space="preserve">
<g>
	<path d="M1.1,47L8,25.7c15.9,5.6,27.4,10.4,34.6,14.5c-1.9-18-2.9-30.5-3-37.2h21.7c-0.3,9.9-1.4,22.2-3.4,37.1
		c10.3-5.2,22-10,35.3-14.4L100,47c-12.7,4.2-25.1,7-37.2,8.4c6.1,5.3,14.7,14.7,25.7,28.3l-18,12.7C64.7,88.5,57.9,77.7,50,64.2
		C42.7,78.2,36.2,89,30.6,96.3L12.9,83.6c11.6-14.3,19.8-23.7,24.8-28.3C24.9,52.9,12.7,50.1,1.1,47z"/>
</g>
</svg>
